# xmcd
#
# Track frame offsets: 
#        150
#        23692
#        40415
#        56612
#        72835
#        81582
#        119910
#        146477
#        166692
#
# Disc length: 2501 seconds
#
# Revision: 2
# Processed by: cddbd v1.5.2PL0 Copyright (c) Steve Scherf et al.
# Submitted via: ExactAudioCopyFreeDBPlugin 1.0
#
DISCID=7d09c309
DTITLE=Harvey Mason - Funk In A Mason Jar
DYEAR=1977
DGENRE=Jazz+Funk
TTITLE0=Pack Up Your Bags
TTITLE1=Till You Take My Love
TTITLE2=Space Cadets
TTITLE3=Freedom Either Way
TTITLE4=Funk In A Mason Jar
TTITLE5=What's Going On?
TTITLE6=Set It Free
TTITLE7=Phantazia
TTITLE8=Liquid
EXTD=YEAR: 1977
EXTT0=
EXTT1=
EXTT2=
EXTT3=
EXTT4=
EXTT5=
EXTT6=
EXTT7=
EXTT8=
PLAYORDER=
